<?xml version="1.0" standalone="no"?>
<!DOCTYPE svg PUBLIC "-//W3C//DTD SVG 20010904//EN"
 "http://www.w3.org/TR/2001/REC-SVG-20010904/DTD/svg10.dtd">
<svg version="1.0" xmlns="http://www.w3.org/2000/svg"
 width="291.000000pt" height="254.000000pt" viewBox="0 0 291.000000 254.000000"
 preserveAspectRatio="xMidYMid meet">

<g transform="translate(0.000000,254.000000) scale(0.100000,-0.100000)"
fill="#000000" stroke="none">
<path d="M1366 2236 c-140 -73 -269 -175 -368 -291 -84 -98 -194 -265 -238
-360 -169 -365 -209 -835 -105 -1238 12 -51 29 -105 37 -122 12 -28 13 -19 18
100 l5 129 44 -67 c24 -37 45 -66 47 -64 2 2 -7 48 -20 103 -36 147 -49 270
-48 454 1 182 18 324 56 472 78 297 288 614 510 770 l59 42 -27 -45 c-86 -138
-139 -290 -152 -436 -8 -90 -18 -92 103 14 l71 63 114 -24 c139 -29 286 -78
354 -116 28 -17 72 -52 97 -79 52 -55 64 -103 49 -184 -9 -47 -9 -49 12 -43
13 4 97 -23 238 -76 l216 -83 -16 -27 c-16 -27 -16 -28 22 -67 l39 -40 -33
-38 c-47 -53 -103 -101 -135 -113 -66 -25 -268 0 -439 54 -63 20 -78 21 -102
11 -16 -7 -50 -22 -76 -34 -27 -11 -48 -16 -48 -12 0 5 24 35 54 66 l53 57
-33 -7 c-74 -13 -197 -82 -291 -161 -28 -24 -54 -44 -57 -44 -11 0 -77 143
-107 233 -17 51 -34 94 -36 97 -11 10 6 -237 22 -320 19 -100 55 -230 64 -230
4 0 14 13 24 29 31 53 144 124 231 145 29 7 29 7 13 -16 -25 -35 -77 -125 -77
-132 0 -4 20 7 45 24 43 30 115 65 119 58 2 -2 8 -28 15 -58 13 -63 58 -147
116 -220 21 -27 40 -48 41 -47 2 1 -6 34 -17 72 -24 81 -28 203 -10 257 l12
37 227 -2 c226 -2 227 -2 283 24 63 30 113 77 172 164 45 64 107 206 107 242
0 27 -55 56 -341 182 l-187 82 -6 48 c-12 88 -103 175 -271 257 -94 46 -329
127 -403 139 -24 4 -46 13 -49 21 -10 27 43 223 102 377 11 26 -6 21 -99 -27z"/>
<path d="M1620 1474 c-14 -36 -12 -55 9 -90 17 -28 35 -39 95 -58 17 -6 14
-10 -20 -33 -62 -41 -64 -46 -15 -39 25 4 80 26 124 50 l79 44 -73 42 c-41 23
-100 57 -132 76 l-58 34 -9 -26z"/>
</g>
</svg>
