<?xml version="1.0" encoding="UTF-8" standalone="no"?>
<!-- Generator: Adobe Illustrator 27.8.1, SVG Export Plug-In . SVG Version: 6.00 Build 0)  -->

<svg
   version="1.1"
   id="Layer_1"
   x="0px"
   y="0px"
   viewBox="0 0 248.82001 350.07001"
   xml:space="preserve"
   sodipodi:docname="logo_y.svg"
   width="248.82001"
   height="350.07001"
   inkscape:version="1.4.2 (ebf0e940, 2025-05-08)"
   xmlns:inkscape="http://www.inkscape.org/namespaces/inkscape"
   xmlns:sodipodi="http://sodipodi.sourceforge.net/DTD/sodipodi-0.dtd"
   xmlns="http://www.w3.org/2000/svg"
   xmlns:svg="http://www.w3.org/2000/svg"><defs
   id="defs1" /><sodipodi:namedview
   id="namedview1"
   pagecolor="#ffffff"
   bordercolor="#000000"
   borderopacity="0.25"
   inkscape:showpageshadow="2"
   inkscape:pageopacity="0.0"
   inkscape:pagecheckerboard="0"
   inkscape:deskcolor="#d1d1d1"
   inkscape:zoom="0.075181643"
   inkscape:cx="-804.71772"
   inkscape:cy="232.76959"
   inkscape:window-width="1440"
   inkscape:window-height="788"
   inkscape:window-x="0"
   inkscape:window-y="25"
   inkscape:window-maximized="0"
   inkscape:current-layer="Layer_1" />
<style
   type="text/css"
   id="style1">
	.st0{fill:#FED10D;}
</style>
<g
   id="g1"
   transform="translate(-835.59,-364.96)">
	<path
   class="st0"
   d="m 1084.41,523.29 c -18.99,68.59 -63.75,61.81 -63.75,61.81 l 7.17,-7.56 c -22.67,0.19 -51.93,-9.88 -51.93,-9.88 -6.01,23.64 19.18,65.87 19.18,65.87 l -18.02,-10.65 c 18.47,33.57 7.36,67.62 7.36,67.62 0,0 -6.98,-39.53 -23.26,-61.81 -16.27,-22.29 -18.21,-48.25 -18.21,-48.25 3.88,6.01 19.18,20.74 19.18,20.74 -7.36,-14.73 -4.06,-43.79 -4.06,-43.79 -27.13,-3.68 -37.98,-15.89 -37.98,-15.89 5.43,-5.81 30.81,-9.5 30.81,-9.5 l -12.21,10.66 59.87,-4.26 -14.53,14.53 c 0,0 43.21,16.47 56.58,10.85 15.02,-6.31 23.64,-27.13 23.64,-27.13 l -12.98,-11.43 6.2,-4.46 -49.79,-24.61 -4.26,-18.41 c -22.28,-16.47 -47.47,-18.61 -47.47,-18.61 3.88,-3.49 11.43,-5.42 11.43,-5.42 -6.78,-5.23 -26.74,-8.14 -26.74,-8.14 -0.97,-20.74 3.1,-37.59 3.1,-37.59 -53.48,51.15 -71.69,108.31 -71.69,108.31 8.14,-6.97 23.84,-14.14 23.84,-14.14 -19.96,30.61 -30.81,68.98 -30.81,68.98 L 886,555.84 c -10.08,23.44 -7.36,62.97 -7.36,62.97 l 14.15,-16.85 c 9.1,31.97 33.13,50.57 33.13,50.57 -4.85,-10.47 -4.26,-25.58 -4.26,-25.58 0,0 18.6,24.8 35.85,37.97 17.1,13.08 30.26,49.54 30.46,50.11 C 949.96,676.41 858.2,626.81 858.2,626.81 l 0.73,-25.18 c -12.45,9.04 -23.34,24.32 -23.34,24.32 4.85,-43.77 24.85,-85.5 25.16,-86.15 -11.6,5.62 -16.75,14.88 -16.75,14.88 31.22,-138.39 129.78,-189.72 129.78,-189.72 -8.72,13.78 -16.85,69.58 -16.85,69.58 28.68,0.97 59.29,39.72 59.29,39.72 l 2.33,8.91 z"
   id="path1" />
	<polygon
   class="st0"
   points="971.8,481.2 996.19,484.23 999.98,499.68 988.47,496.35 "
   id="polygon1" />
</g>
</svg>
