<?xml version="1.0" encoding="UTF-8" standalone="no"?>
<!-- Generator: Adobe Illustrator 27.8.1, SVG Export Plug-In . SVG Version: 6.00 Build 0)  -->

<svg
   version="1.1"
   id="Layer_1"
   x="0px"
   y="0px"
   viewBox="0 0 700.77002 87.730003"
   xml:space="preserve"
   sodipodi:docname="logo_submark_black.svg"
   width="700.77002"
   height="87.730003"
   inkscape:version="1.4.2 (ebf0e940, 2025-05-08)"
   xmlns:inkscape="http://www.inkscape.org/namespaces/inkscape"
   xmlns:sodipodi="http://sodipodi.sourceforge.net/DTD/sodipodi-0.dtd"
   xmlns="http://www.w3.org/2000/svg"
   xmlns:svg="http://www.w3.org/2000/svg"><defs
   id="defs8" /><sodipodi:namedview
   id="namedview8"
   pagecolor="#ffffff"
   bordercolor="#000000"
   borderopacity="0.25"
   inkscape:showpageshadow="2"
   inkscape:pageopacity="0.0"
   inkscape:pagecheckerboard="0"
   inkscape:deskcolor="#d1d1d1"
   inkscape:zoom="0.024074074"
   inkscape:cx="353.07692"
   inkscape:cy="41.538462"
   inkscape:window-width="896"
   inkscape:window-height="245"
   inkscape:window-x="0"
   inkscape:window-y="25"
   inkscape:window-maximized="0"
   inkscape:current-layer="Layer_1" />
<g
   id="g8"
   transform="translate(-609.62,-496.13)">
	<path
   d="m 626.06,583.86 c -3.01,0 -5.77,-0.73 -8.28,-2.19 -2.52,-1.46 -4.51,-3.45 -5.97,-5.97 -1.46,-2.52 -2.19,-5.28 -2.19,-8.28 v -54.83 c 0,-3 0.73,-5.77 2.19,-8.29 1.46,-2.52 3.45,-4.51 5.97,-5.97 2.52,-1.46 5.28,-2.19 8.28,-2.19 h 54.83 c 3,0 5.75,0.73 8.22,2.19 2.48,1.46 4.47,3.45 5.97,5.97 1.5,2.52 2.25,5.28 2.25,8.29 v 5.97 h -14.74 v -5.48 c 0,-0.57 -0.22,-1.08 -0.67,-1.52 -0.45,-0.45 -0.96,-0.67 -1.52,-0.67 h -53.98 c -0.57,0 -1.08,0.22 -1.52,0.67 -0.45,0.45 -0.67,0.96 -0.67,1.52 v 53.85 c 0,0.57 0.22,1.08 0.67,1.52 0.45,0.45 0.95,0.67 1.52,0.67 h 53.98 c 0.57,0 1.08,-0.22 1.52,-0.67 0.45,-0.45 0.67,-0.95 0.67,-1.52 V 549.75 H 662.36 V 535 h 34.97 v 32.41 c 0,3.01 -0.75,5.77 -2.25,8.28 -1.5,2.52 -3.49,4.51 -5.97,5.97 -2.48,1.46 -5.22,2.19 -8.22,2.19 h -54.83 z"
   id="path1" />
	<path
   d="m 716.07,581.67 c -2.52,-1.46 -4.51,-3.45 -5.97,-5.97 -1.46,-2.52 -2.19,-5.28 -2.19,-8.28 v -71.28 h 14.62 v 70.79 c 0,0.57 0.22,1.08 0.67,1.52 0.44,0.45 0.95,0.67 1.52,0.67 h 53.98 c 0.57,0 1.08,-0.22 1.52,-0.67 0.44,-0.45 0.67,-0.95 0.67,-1.52 v -70.79 h 14.74 v 71.28 c 0,3.01 -0.75,5.77 -2.25,8.28 -1.51,2.52 -3.49,4.51 -5.97,5.97 -2.48,1.46 -5.22,2.19 -8.22,2.19 h -54.83 c -3.01,0 -5.77,-0.73 -8.29,-2.19 z"
   id="path2" />
	<path
   d="m 806.61,512.58 c 0,-3 0.73,-5.77 2.19,-8.29 1.46,-2.52 3.45,-4.51 5.97,-5.97 2.52,-1.46 5.28,-2.19 8.28,-2.19 h 54.83 c 3,0 5.75,0.73 8.22,2.19 2.48,1.46 4.47,3.45 5.97,5.97 1.5,2.52 2.25,5.28 2.25,8.29 v 71.28 h -14.74 v -30.09 h -58.36 v 30.09 H 806.6 v -71.28 z m 72.98,26.56 v -26.07 c 0,-0.57 -0.22,-1.08 -0.67,-1.52 -0.45,-0.45 -0.96,-0.67 -1.52,-0.67 h -53.97 c -0.57,0 -1.08,0.22 -1.52,0.67 -0.45,0.45 -0.67,0.96 -0.67,1.52 v 26.07 z"
   id="path3" />
	<path
   d="m 984.97,550.96 c 2.48,-1.46 4.46,-3.46 5.97,-5.97 1.51,-2.52 2.25,-5.24 2.25,-8.17 V 512.7 c 0,-3 -0.75,-5.74 -2.25,-8.22 -1.51,-2.48 -3.49,-4.47 -5.97,-5.98 -2.49,-1.49 -5.22,-2.25 -8.23,-2.25 h -71.28 v 87.61 h 14.63 v -30.59 l 30.62,-0.06 25.66,30.65 h 16.45 v -3.42 l -23.01,-27.27 6.92,-0.01 c 3.02,0 5.75,-0.74 8.24,-2.2 z m -62.7,-12.55 c -0.56,0 -1.07,-0.2 -1.52,-0.61 -0.44,-0.41 -0.66,-0.93 -0.66,-1.59 v -23.15 c 0,-0.56 0.22,-1.07 0.66,-1.52 0.44,-0.44 0.96,-0.67 1.52,-0.67 h 53.99 c 0.56,0 1.07,0.22 1.52,0.67 0.44,0.44 0.66,0.96 0.66,1.52 v 23.15 c 0,0.65 -0.22,1.18 -0.66,1.59 -0.44,0.41 -0.96,0.61 -1.52,0.61 z"
   id="path4" />
	<path
   d="M 1003.72,583.86 V 496.14 H 1075 c 3,0 5.75,0.73 8.22,2.19 2.48,1.46 4.47,3.45 5.97,5.97 1.5,2.52 2.25,5.28 2.25,8.29 v 54.83 c 0,3.01 -0.75,5.77 -2.25,8.28 -1.5,2.52 -3.49,4.51 -5.97,5.97 -2.48,1.46 -5.22,2.19 -8.22,2.19 z m 16.81,-14.74 h 53.97 c 0.57,0 1.08,-0.22 1.52,-0.67 0.45,-0.45 0.67,-0.95 0.67,-1.52 v -53.85 c 0,-0.57 -0.22,-1.08 -0.67,-1.52 -0.45,-0.45 -0.96,-0.67 -1.52,-0.67 h -53.97 c -0.65,0 -1.2,0.22 -1.65,0.67 -0.45,0.45 -0.67,0.96 -0.67,1.52 v 53.85 c 0,0.57 0.22,1.08 0.67,1.52 0.45,0.44 1,0.67 1.65,0.67 z"
   id="path5" />
	<path
   d="m 1100.75,583.86 v -87.72 h 14.5 v 87.72 z"
   id="path6" />
	<path
   d="m 1140.82,583.86 c -3.01,0 -5.77,-0.73 -8.28,-2.19 -2.52,-1.46 -4.51,-3.45 -5.97,-5.97 -1.46,-2.52 -2.19,-5.28 -2.19,-8.28 v -54.83 c 0,-3 0.73,-5.77 2.19,-8.29 1.46,-2.52 3.45,-4.51 5.97,-5.97 2.52,-1.46 5.28,-2.19 8.28,-2.19 h 54.83 c 3,0 5.75,0.73 8.22,2.19 2.48,1.46 4.47,3.45 5.97,5.97 1.5,2.52 2.25,5.28 2.25,8.29 v 5.97 h -14.74 v -5.48 c 0,-0.57 -0.22,-1.08 -0.67,-1.52 -0.45,-0.45 -0.96,-0.67 -1.52,-0.67 h -53.98 c -0.57,0 -1.08,0.22 -1.52,0.67 -0.45,0.45 -0.67,0.96 -0.67,1.52 v 53.85 c 0,0.57 0.22,1.08 0.67,1.52 0.45,0.45 0.95,0.67 1.52,0.67 h 53.98 c 0.57,0 1.08,-0.22 1.52,-0.67 0.45,-0.45 0.67,-0.95 0.67,-1.52 v -17.18 h -20.23 V 535 h 34.97 v 32.41 c 0,3.01 -0.75,5.77 -2.25,8.28 -1.5,2.52 -3.49,4.51 -5.97,5.97 -2.48,1.46 -5.22,2.19 -8.22,2.19 h -54.83 z"
   id="path7" />
	<path
   d="m 1239.12,583.86 c -3.01,0 -5.77,-0.73 -8.29,-2.19 -2.52,-1.46 -4.51,-3.45 -5.97,-5.97 -1.46,-2.52 -2.19,-5.28 -2.19,-8.28 v -54.83 c 0,-3 0.73,-5.77 2.19,-8.29 1.46,-2.52 3.45,-4.51 5.97,-5.97 2.52,-1.46 5.28,-2.19 8.29,-2.19 h 54.83 c 3,0 5.75,0.73 8.22,2.19 2.48,1.46 4.47,3.45 5.97,5.97 1.5,2.52 2.25,5.28 2.25,8.29 v 54.83 c 0,3.01 -0.75,5.77 -2.25,8.28 -1.51,2.52 -3.49,4.51 -5.97,5.97 -2.48,1.46 -5.22,2.19 -8.22,2.19 z m 0.36,-14.74 h 53.98 c 0.57,0 1.08,-0.22 1.52,-0.67 0.44,-0.45 0.67,-0.95 0.67,-1.52 v -53.85 c 0,-0.57 -0.22,-1.08 -0.67,-1.52 -0.45,-0.45 -0.96,-0.67 -1.52,-0.67 h -53.98 c -0.57,0 -1.08,0.22 -1.52,0.67 -0.45,0.45 -0.67,0.96 -0.67,1.52 v 53.85 c 0,0.57 0.22,1.08 0.67,1.52 0.45,0.44 0.95,0.67 1.52,0.67 z"
   id="path8" />
</g>
</svg>
